<?xml version="1.0" encoding="UTF-8"?>
<svg width="16px" height="16px" viewBox="0 0 16 16" version="1.1" xmlns="http://www.w3.org/2000/svg" xmlns:xlink="http://www.w3.org/1999/xlink">
    <title>DA15EFB4-CE98-42E4-AB37-671EF2712145</title>
    <g id="Page-1" stroke="none" stroke-width="1" fill="none" fill-rule="evenodd">
        <g id="02.Home" transform="translate(-679.000000, -391.000000)" fill="#212529">
            <g id="Group-10" transform="translate(140.000000, 383.000000)">
                <g id="Group-12-Copy-2" transform="translate(481.000000, 4.000000)">
                    <g id="Icon/16/Location-Copy-2" transform="translate(58.000000, 4.000000)">
                        <path d="M13.9375,1.25 L12.5,1.25 L12.5,0.5 C12.5,0.223875 12.2761562,0 12,0 C11.7238438,0 11.5,0.223875 11.5,0.5 L11.5,1.25 L4.5,1.25 L4.5,0.5 C4.5,0.223875 4.27615625,0 4,0 C3.72384375,0 3.5,0.223875 3.5,0.5 L3.5,1.25 L2.0625,1.25 C0.92521875,1.25 0,2.17521875 0,3.3125 L0,13.9375 C0,15.0747813 0.92521875,16 2.0625,16 L13.9375,16 C15.0747813,16 16,15.0747813 16,13.9375 L16,3.3125 C16,2.17521875 15.0747813,1.25 13.9375,1.25 Z M15,13.9375 C15,14.5243125 14.5243125,15 13.9375,15 L2.0625,15 C1.4756875,15 1,14.5243125 1,13.9375 L1,5.65625 C1,5.56996875 1.06996875,5.5 1.15625,5.5 L14.84375,5.5 C14.9300313,5.5 15,5.56996875 15,5.65625 L15,13.9375 Z" id="Shape"></path>
                    </g>
                </g>
            </g>
        </g>
    </g>
</svg>