<?xml version="1.0" encoding="UTF-8"?>
<svg width="24px" height="24px" viewBox="0 0 24 24" version="1.1" xmlns="http://www.w3.org/2000/svg" xmlns:xlink="http://www.w3.org/1999/xlink">
    <title>AFF82C3A-6135-48EC-92D5-7694FB00630B</title>
    <g id="Page-1" stroke="none" stroke-width="1" fill="none" fill-rule="evenodd">
        <g id="06.Chatt" transform="translate(-353.000000, -24.000000)" fill="#212529">
            <g id="Group-2" transform="translate(350.000000, 20.000000)">
                <g id="Icon/16/arrow-drop-Copy-2" transform="translate(3.000000, 4.000000)">
                    <path d="M12.0008391,0 C5.37844425,0 0.000899136405,5.37768764 0.000899136405,12.0007792 C0.00489936841,14.1201864 0.580772224,16.1944232 1.64776696,18.0226562 L0.0212110174,22.9023436 C-0.0830444623,23.2151358 0.214734048,23.5127554 0.527456478,23.4085916 L5.19462119,21.8531241 C7.19499526,23.237943 9.56324735,23.9963717 12.0000591,24 C18.622834,24 24,18.6226396 24,12 C24,5.37720779 18.623218,0 12.0008391,0 Z M7.99070324,10.7999993 C8.64868396,10.7999993 9.19069725,11.3420595 9.19069725,11.9999993 C9.19069725,12.6580913 8.64867594,13.1999985 7.99070324,13.1999985 C7.33273054,13.1999985 6.79148917,12.6580913 6.79148917,11.9999993 C6.79148917,11.3420595 7.33272252,10.7999993 7.99070324,10.7999993 L7.99070324,10.7999993 Z M12.0008391,10.7999993 C12.6588198,10.7999993 13.2008331,11.3420595 13.2008331,11.9999993 C13.2008331,12.6580913 12.6588118,13.1999985 12.0008391,13.1999985 C11.3428664,13.1999985 10.8008451,12.6580913 10.8008451,11.9999993 C10.8008451,11.3420595 11.3428544,10.7999993 12.0008391,10.7999993 L12.0008391,10.7999993 Z M15.9906632,10.7999993 C16.6486439,10.7999993 17.1906572,11.3420595 17.1906572,11.9999993 C17.1906572,12.6580913 16.6486364,13.1999985 15.9906632,13.1999985 C15.3326901,13.1999985 14.7906692,12.6580913 14.7906692,11.9999993 C14.7906692,11.3420595 15.3326825,10.7999993 15.9906632,10.7999993 L15.9906632,10.7999993 Z" id="comm-16_chat"></path>
                </g>
            </g>
        </g>
    </g>
</svg>