<?xml version="1.0" encoding="UTF-8"?>
<svg width="20px" height="20px" viewBox="0 0 20 20" version="1.1" xmlns="http://www.w3.org/2000/svg" xmlns:xlink="http://www.w3.org/1999/xlink">
    <title>62375EBE-F9A9-4917-820C-8BDA09C51724</title>
    <g id="Page-1" stroke="none" stroke-width="1" fill="none" fill-rule="evenodd">
        <g id="02.Room-Profile" transform="translate(-1194.000000, -840.000000)" fill="#FFFFFF">
            <g id="Group-4" transform="translate(1026.000000, 568.000000)">
                <g id="Buttun/Primary-Copy" transform="translate(73.000000, 258.000000)">
                    <g id="Icon/24/Chatt" transform="translate(95.000000, 14.000000)">
                        <path d="M10.0006992,0 C4.48203688,0 0.000749280338,4.48140637 0.000749280338,10.0006494 C0.00408280701,11.766822 0.483976853,13.4953527 1.37313913,15.0188802 L0.0176758478,19.0852863 C-0.0692037186,19.3459465 0.17894504,19.5939629 0.439547065,19.5071597 L4.32885099,18.2109368 C5.99582938,19.3649525 7.96937279,19.9969764 10.0000493,20 C15.5190283,20 20,15.5188663 20,10 C20,4.48100649 15.5193483,0 10.0006992,0 Z M6.65891937,8.99999944 C7.20723663,8.99999944 7.65891438,9.45171621 7.65891438,9.99999944 C7.65891438,10.5484095 7.20722995,10.9999994 6.65891937,10.9999994 C6.11060878,10.9999994 5.65957431,10.5484095 5.65957431,9.99999944 C5.65957431,9.45171621 6.1106021,8.99999944 6.65891937,8.99999944 L6.65891937,8.99999944 Z M10.0007042,8.99999944 C10.5490165,8.99999944 11.0007042,9.45171621 11.0007042,9.99999944 C11.0007042,10.5484095 10.5490098,10.9999994 10.0007042,10.9999994 C9.45238864,10.9999994 9.00070421,10.5484095 9.00070421,9.99999944 C9.00070421,9.45171621 9.45237869,8.99999944 10.0007042,8.99999944 L10.0007042,8.99999944 Z M13.3255577,8.99999944 C13.8738699,8.99999944 14.3255577,9.45171621 14.3255577,9.99999944 C14.3255577,10.5484095 13.8738636,10.9999994 13.3255577,10.9999994 C12.7772417,10.9999994 12.3255577,10.5484095 12.3255577,9.99999944 C12.3255577,9.45171621 12.7772354,8.99999944 13.3255577,8.99999944 L13.3255577,8.99999944 Z" id="comm-16_chat"></path>
                    </g>
                </g>
            </g>
        </g>
    </g>
</svg>