<?xml version="1.0" encoding="UTF-8"?>
<svg width="16px" height="14px" viewBox="0 0 16 14" version="1.1" xmlns="http://www.w3.org/2000/svg" xmlns:xlink="http://www.w3.org/1999/xlink">
    <title>A4A2F771-AFCF-4EF8-8C30-0B937DCF627D</title>
    <g id="Page-1" stroke="none" stroke-width="1" fill="none" fill-rule="evenodd">
        <g id="03.Filteration/Result" transform="translate(-745.000000, -1228.000000)" fill="#D2D2D2">
            <g id="Group-15-Copy" transform="translate(139.000000, 895.000000)">
                <g id="Group-3" transform="translate(591.000000, 316.000000)">
                    <g id="Group-2-Copy-6" transform="translate(8.000000, 8.000000)">
                        <g id="Icon/16/Location-Copy" transform="translate(7.000000, 8.000000)">
                            <path d="M11.3356206,1 C10.5895918,1 9.87658557,1.1649777 9.21642887,1.49038221 C8.7670433,1.71184822 8.3542433,2.00609665 8,2.35521034 C7.6457567,2.00609665 7.2329567,1.71184822 6.78357113,1.49038221 C6.12338144,1.1649777 5.41037526,1 4.66434639,1 C2.09243711,1 0,3.01852635 0,5.49962038 C0,7.25693204 0.962078351,9.12333774 2.85948041,11.0470592 C4.44371134,12.6532686 6.38330722,13.9921848 7.73143093,14.8325718 L8,15 L8.26856907,14.8325718 C9.61669278,13.9922167 11.5562887,12.6532686 13.1405196,11.0470592 C15.0379216,9.12333774 16,7.25693204 16,5.49962038 C16,3.01852635 13.9075629,1 11.3356206,1 Z" id="Path"></path>
                        </g>
                    </g>
                </g>
            </g>
        </g>
    </g>
</svg>