<?xml version="1.0" encoding="UTF-8"?>
<svg width="24px" height="24px" viewBox="0 0 24 24" version="1.1" xmlns="http://www.w3.org/2000/svg" xmlns:xlink="http://www.w3.org/1999/xlink">
    <title>A56AB3E8-0766-4B2F-83FA-BB41C7FC5D1B</title>
    <g id="Page-1" stroke="none" stroke-width="1" fill="none" fill-rule="evenodd">
        <g id="02.Home" transform="translate(-294.000000, -24.000000)" fill="#212529">
            <g id="Group-10" transform="translate(291.000000, 20.000000)">
                <g id="Icon/16/arrow-drop-Copy-2" transform="translate(3.000000, 4.000000)">
                    <path d="M15.674,21 C15.326,22.709 13.811,24 12,24 C10.189,24 8.674,22.709 8.326,21 L8.326,21 Z M12,0 C12.552,0 13,0.447 13,1 L13,1 L13,2.08 C16.386,2.568 19,5.481 19,9 L19,9 L19,11.788 C19,13.767 19.867,15.635 21.379,16.913 C21.777,17.254 22,17.738 22,18.25 C22,19.215 21.215,20 20.25,20 L20.25,20 L3.75,20 C2.785,20 2,19.215 2,18.25 C2,17.738 2.223,17.254 2.612,16.921 C4.133,15.635 5,13.767 5,11.788 L5,11.788 L5,9 C5,5.481 7.613,2.568 11,2.08 L11,2.08 L11,1 C11,0.447 11.448,0 12,0 Z" id="Combined-Shape"></path>
                </g>
            </g>
        </g>
    </g>
</svg>